# Generated by CreateCubeMesh.py
# Striatum cube mesh, centre = [0.00354  0.004645 0.005081], side = 0.00029891487431077526

g cube

v 3390.542563 4495.542563 4931.542563
v 3390.542563 4495.542563 5230.457437
v 3390.542563 4794.457437 4931.542563
v 3390.542563 4794.457437 5230.457437
v 3689.457437 4495.542563 4931.542563
v 3689.457437 4495.542563 5230.457437
v 3689.457437 4794.457437 4931.542563
v 3689.457437 4794.457437 5230.457437

vn  0.0  0.0  1.0
vn  0.0  0.0 -1.0
vn  0.0  1.0  0.0
vn  0.0 -1.0  0.0
vn  1.0  0.0  0.0
vn -1.0  0.0  0.0

f  1//2  7//2  5//2
f  1//2  3//2  7//2
f  1//6  4//6  3//6
f  1//6  2//6  4//6
f  3//3  8//3  7//3
f  3//3  4//3  8//3
f  5//5  7//5  8//5
f  5//5  8//5  6//5
f  1//4  5//4  6//4
f  1//4  6//4  2//4
f  2//1  6//1  8//1
f  2//1  8//1  4//1
